<svg xmlns="http://www.w3.org/2000/svg" viewBox="0 0 200 200" fill="none">
  <defs>
    <linearGradient id="casualGrad" x1="0%" y1="0%" x2="100%" y2="100%">
      <stop offset="0%" style="stop-color:#ffd93d"/>
      <stop offset="100%" style="stop-color:#6bcf7f"/>
    </linearGradient>
  </defs>
  
  <!-- Background -->
  <rect width="200" height="200" fill="url(#casualGrad)" opacity="0.1"/>
  
  <!-- Smiling face -->
  <circle cx="100" cy="100" r="40" fill="url(#casualGrad)" opacity="0.9"/>
  <circle cx="85" cy="85" r="5" fill="white"/>
  <circle cx="115" cy="85" r="5" fill="white"/>
  <path d="M 80 115 Q 100 130 120 115" stroke="white" stroke-width="4" fill="none" stroke-linecap="round"/>
  
  <!-- Hearts -->
  <path d="M 50 60 Q 45 50 35 55 Q 25 50 30 60 Q 35 70 50 75 Q 65 70 70 60 Q 75 50 65 55 Q 55 50 50 60 Z" fill="#ff6b6b" opacity="0.7"/>
  
  <path d="M 160 140 Q 155 130 145 135 Q 135 130 140 140 Q 145 150 160 155 Q 175 150 180 140 Q 185 130 175 135 Q 165 130 160 140 Z" fill="#ff6b6b" opacity="0.7"/>
  
  <!-- Stars -->
  <polygon points="40,120 43,127 51,127 45,132 47,140 40,135 33,140 35,132 29,127 37,127" fill="#ffd93d"/>
  <polygon points="160,50 162,55 168,55 163,59 165,65 160,61 155,65 157,59 152,55 158,55" fill="#ffd93d"/>
  
  <!-- Music notes -->
  <circle cx="170" cy="90" r="4" fill="#5352ed" opacity="0.8"/>
  <rect x="168" y="75" width="2" height="15" fill="#5352ed" opacity="0.8"/>
  <path d="M 170 75 Q 175 70 180 75" stroke="#5352ed" stroke-width="2" fill="none" opacity="0.8"/>
  
  <!-- Floating elements -->
  <circle cx="30" cy="40" r="6" fill="#ff9f43" opacity="0.6"/>
  <circle cx="180" cy="30" r="4" fill="#6bcf7f" opacity="0.6"/>
  <circle cx="20" cy="170" r="5" fill="#5352ed" opacity="0.6"/>
  <circle cx="170" cy="170" r="7" fill="#ff6b6b" opacity="0.6"/>
  
  <!-- Sparkles -->
  <circle cx="60" cy="30" r="2" fill="#ffd93d"/>
  <circle cx="140" cy="25" r="2" fill="#ff6b6b"/>
  <circle cx="25" cy="100" r="2" fill="#6bcf7f"/>
  <circle cx="175" cy="110" r="2" fill="#5352ed"/>
</svg> 