<svg xmlns="http://www.w3.org/2000/svg" viewBox="0 0 200 200" fill="none">
  <defs>
    <linearGradient id="strategyGrad" x1="0%" y1="0%" x2="100%" y2="100%">
      <stop offset="0%" style="stop-color:#2c2c54"/>
      <stop offset="100%" style="stop-color:#40407a"/>
    </linearGradient>
  </defs>
  
  <!-- Background -->
  <rect width="200" height="200" fill="url(#strategyGrad)" opacity="0.1"/>
  
  <!-- Chess board -->
  <rect x="60" y="60" width="80" height="80" rx="5" fill="white" opacity="0.9"/>
  
  <!-- Chess squares -->
  <rect x="60" y="60" width="10" height="10" fill="url(#strategyGrad)"/>
  <rect x="80" y="60" width="10" height="10" fill="url(#strategyGrad)"/>
  <rect x="100" y="60" width="10" height="10" fill="url(#strategyGrad)"/>
  <rect x="120" y="60" width="10" height="10" fill="url(#strategyGrad)"/>
  
  <rect x="70" y="70" width="10" height="10" fill="url(#strategyGrad)"/>
  <rect x="90" y="70" width="10" height="10" fill="url(#strategyGrad)"/>
  <rect x="110" y="70" width="10" height="10" fill="url(#strategyGrad)"/>
  <rect x="130" y="70" width="10" height="10" fill="url(#strategyGrad)"/>
  
  <rect x="60" y="80" width="10" height="10" fill="url(#strategyGrad)"/>
  <rect x="80" y="80" width="10" height="10" fill="url(#strategyGrad)"/>
  <rect x="100" y="80" width="10" height="10" fill="url(#strategyGrad)"/>
  <rect x="120" y="80" width="10" height="10" fill="url(#strategyGrad)"/>
  
  <!-- Chess pieces -->
  <!-- King -->
  <circle cx="85" cy="85" r="3" fill="#ffd93d"/>
  <rect x="83" y="80" width="4" height="8" rx="1" fill="#ffd93d"/>
  <rect x="82" y="79" width="6" height="2" rx="1" fill="#ffd93d"/>
  
  <!-- Queen -->
  <circle cx="105" cy="105" r="3" fill="#ff6b6b"/>
  <rect x="103" y="100" width="4" height="8" rx="1" fill="#ff6b6b"/>
  <polygon points="101,99 105,96 109,99" fill="#ff6b6b"/>
  
  <!-- Strategy arrows -->
  <path d="M 30 100 L 50 100 L 45 95 M 50 100 L 45 105" stroke="#6bcf7f" stroke-width="3" fill="none"/>
  <path d="M 150 100 L 170 100 L 165 95 M 170 100 L 165 105" stroke="#6bcf7f" stroke-width="3" fill="none"/>
  
  <!-- Mind/brain symbols -->
  <circle cx="100" cy="40" r="8" fill="#5352ed" opacity="0.7"/>
  <path d="M 95 37 Q 100 32 105 37 Q 105 43 100 43 Q 95 43 95 37 Z" fill="white"/>
  
  <!-- Strategic elements -->
  <circle cx="40" cy="50" r="4" fill="#ff9f43" opacity="0.6"/>
  <circle cx="160" cy="50" r="4" fill="#ff9f43" opacity="0.6"/>
  <circle cx="40" cy="150" r="4" fill="#ff9f43" opacity="0.6"/>
  <circle cx="160" cy="150" r="4" fill="#ff9f43" opacity="0.6"/>
  
  <!-- Connection lines -->
  <line x1="44" y1="54" x2="156" y2="146" stroke="#5352ed" stroke-width="2" opacity="0.4"/>
  <line x1="156" y1="54" x2="44" y2="146" stroke="#5352ed" stroke-width="2" opacity="0.4"/>
</svg> 