<svg xmlns="http://www.w3.org/2000/svg" viewBox="0 0 200 200" fill="none">
  <defs>
    <linearGradient id="puzzleGrad" x1="0%" y1="0%" x2="100%" y2="100%">
      <stop offset="0%" style="stop-color:#3742fa"/>
      <stop offset="100%" style="stop-color:#2f3542"/>
    </linearGradient>
  </defs>
  
  <!-- Background -->
  <rect width="200" height="200" fill="url(#puzzleGrad)" opacity="0.1"/>
  
  <!-- Puzzle pieces -->
  <!-- Top Left -->
  <path d="M 60 60 L 100 60 Q 105 50 105 55 Q 105 65 100 60 L 100 100 Q 90 105 95 105 Q 110 105 100 100 L 60 100 L 60 60 Z" fill="url(#puzzleGrad)" opacity="0.9"/>
  
  <!-- Top Right -->
  <path d="M 100 60 L 140 60 L 140 100 Q 150 105 145 105 Q 135 105 140 100 L 100 100 Q 105 90 105 95 Q 105 110 100 100 L 100 60 Z" fill="#ff6b6b" opacity="0.8"/>
  
  <!-- Bottom Left -->
  <path d="M 60 100 L 100 100 Q 95 90 95 95 Q 95 110 100 100 L 100 140 L 60 140 L 60 100 Z" fill="#ffd93d" opacity="0.8"/>
  
  <!-- Bottom Right -->
  <path d="M 100 100 Q 110 95 105 95 Q 90 95 100 100 L 140 100 L 140 140 L 100 140 L 100 100 Z" fill="#6bcf7f" opacity="0.8"/>
  
  <!-- Brain icon in center -->
  <circle cx="100" cy="100" r="15" fill="white" opacity="0.9"/>
  <path d="M 90 95 Q 100 85 110 95 Q 110 105 100 105 Q 90 105 90 95 Z" fill="url(#puzzleGrad)" opacity="0.7"/>
  <circle cx="95" cy="98" r="2" fill="white"/>
  <circle cx="105" cy="98" r="2" fill="white"/>
  
  <!-- Floating pieces -->
  <rect x="30" y="40" width="15" height="15" rx="3" fill="#ff9f43" opacity="0.6"/>
  <rect x="155" y="45" width="12" height="12" rx="2" fill="#5352ed" opacity="0.6"/>
  <rect x="170" y="150" width="10" height="10" rx="2" fill="#ff6b6b" opacity="0.6"/>
  <rect x="25" y="160" width="13" height="13" rx="3" fill="#6bcf7f" opacity="0.6"/>
</svg> 