<svg xmlns="http://www.w3.org/2000/svg" viewBox="0 0 200 200" fill="none">
  <defs>
    <linearGradient id="sportsGrad" x1="0%" y1="0%" x2="100%" y2="100%">
      <stop offset="0%" style="stop-color:#6bcf7f"/>
      <stop offset="100%" style="stop-color:#5352ed"/>
    </linearGradient>
  </defs>
  
  <!-- Background -->
  <rect width="200" height="200" fill="url(#sportsGrad)" opacity="0.1"/>
  
  <!-- Soccer ball -->
  <circle cx="100" cy="100" r="35" fill="white" opacity="0.9"/>
  <circle cx="100" cy="100" r="35" stroke="url(#sportsGrad)" stroke-width="3" fill="none"/>
  
  <!-- Soccer ball pattern -->
  <polygon points="100,70 110,85 90,85" fill="url(#sportsGrad)"/>
  <polygon points="100,130 110,115 90,115" fill="url(#sportsGrad)"/>
  <polygon points="75,90 85,105 75,120 65,105" fill="url(#sportsGrad)"/>
  <polygon points="125,90 135,105 125,120 115,105" fill="url(#sportsGrad)"/>
  
  <!-- Basketball -->
  <circle cx="50" cy="50" r="15" fill="#ff9f43" opacity="0.8"/>
  <path d="M 35 50 Q 50 40 65 50" stroke="#2c2c54" stroke-width="2" fill="none"/>
  <path d="M 50 35 Q 60 50 50 65" stroke="#2c2c54" stroke-width="2" fill="none"/>
  
  <!-- Tennis ball -->
  <circle cx="150" cy="150" r="12" fill="#ffd93d" opacity="0.8"/>
  <path d="M 140 145 Q 150 140 160 145" stroke="white" stroke-width="2" fill="none"/>
  <path d="M 140 155 Q 150 160 160 155" stroke="white" stroke-width="2" fill="none"/>
  
  <!-- Trophy -->
  <rect x="160" y="60" width="20" height="25" rx="10" fill="#ffd93d"/>
  <rect x="165" y="85" width="10" height="15" fill="#ffd93d"/>
  <rect x="160" y="100" width="20" height="5" rx="2" fill="#ffd93d"/>
  <circle cx="155" cy="67" r="3" fill="#ffd93d"/>
  <circle cx="185" cy="67" r="3" fill="#ffd93d"/>
  
  <!-- Goal posts -->
  <rect x="30" y="140" width="3" height="25" fill="white"/>
  <rect x="30" y="140" width="20" height="3" fill="white"/>
  
  <!-- Movement lines -->
  <path d="M 70 30 Q 80 25 90 30" stroke="url(#sportsGrad)" stroke-width="3" fill="none" opacity="0.6"/>
  <path d="M 110 170 Q 120 165 130 170" stroke="url(#sportsGrad)" stroke-width="3" fill="none" opacity="0.6"/>
  
  <!-- Stars for achievement -->
  <polygon points="170,30 172,35 178,35 173,39 175,45 170,41 165,45 167,39 162,35 168,35" fill="#ffd93d" opacity="0.8"/>
  <polygon points="30,170 32,175 38,175 33,179 35,185 30,181 25,185 27,179 22,175 28,175" fill="#ffd93d" opacity="0.8"/>
</svg> 