<svg xmlns="http://www.w3.org/2000/svg" viewBox="0 0 200 200" fill="none">
  <defs>
    <linearGradient id="arcadeGrad" x1="0%" y1="0%" x2="100%" y2="100%">
      <stop offset="0%" style="stop-color:#ff6b6b"/>
      <stop offset="100%" style="stop-color:#4ecdc4"/>
    </linearGradient>
  </defs>
  
  <!-- Background -->
  <rect width="200" height="200" fill="url(#arcadeGrad)" opacity="0.1"/>
  
  <!-- Game Controller -->
  <rect x="40" y="80" width="120" height="60" rx="15" fill="url(#arcadeGrad)"/>
  
  <!-- D-Pad -->
  <rect x="60" y="95" width="8" height="30" rx="2" fill="white"/>
  <rect x="52" y="103" width="24" height="8" rx="2" fill="white"/>
  
  <!-- Buttons -->
  <circle cx="125" cy="100" r="8" fill="white"/>
  <circle cx="145" cy="110" r="8" fill="white"/>
  
  <!-- Screen effect -->
  <rect x="70" y="40" width="60" height="40" rx="5" fill="white" opacity="0.9"/>
  <rect x="75" y="45" width="50" height="30" rx="3" fill="url(#arcadeGrad)" opacity="0.8"/>
  
  <!-- Sparkles -->
  <circle cx="160" cy="50" r="3" fill="#ffd93d"/>
  <circle cx="170" cy="35" r="2" fill="#6bcf7f"/>
  <circle cx="40" cy="45" r="2" fill="#ff6b6b"/>
  
  <!-- Game elements -->
  <rect x="80" y="50" width="4" height="4" fill="white"/>
  <rect x="90" y="55" width="4" height="4" fill="white"/>
  <rect x="100" y="50" width="4" height="4" fill="white"/>
  <rect x="110" y="55" width="4" height="4" fill="white"/>
</svg> 