<svg xmlns="http://www.w3.org/2000/svg" viewBox="0 0 200 200" fill="none">
  <defs>
    <linearGradient id="adventureGrad" x1="0%" y1="0%" x2="100%" y2="100%">
      <stop offset="0%" style="stop-color:#ff9f43"/>
      <stop offset="100%" style="stop-color:#2c2c54"/>
    </linearGradient>
  </defs>
  
  <!-- Background -->
  <rect width="200" height="200" fill="url(#adventureGrad)" opacity="0.1"/>
  
  <!-- Mountain -->
  <polygon points="100,40 140,120 60,120" fill="url(#adventureGrad)" opacity="0.8"/>
  <polygon points="100,40 120,80 80,80" fill="white" opacity="0.3"/>
  
  <!-- Treasure chest -->
  <rect x="70" y="130" width="60" height="30" rx="5" fill="#ff9f43"/>
  <rect x="70" y="130" width="60" height="15" rx="5" fill="#ffd93d"/>
  <rect x="95" y="125" width="10" height="10" rx="2" fill="#ff9f43"/>
  <circle cx="100" cy="135" r="3" fill="#2c2c54"/>
  
  <!-- Coins -->
  <circle cx="85" cy="140" r="4" fill="#ffd93d"/>
  <circle cx="115" cy="145" r="4" fill="#ffd93d"/>
  <circle cx="100" cy="150" r="3" fill="#ffd93d"/>
  
  <!-- Compass -->
  <circle cx="50" cy="60" r="15" fill="white" opacity="0.9"/>
  <circle cx="50" cy="60" r="15" stroke="#2c2c54" stroke-width="2" fill="none"/>
  <line x1="50" y1="50" x2="50" y2="70" stroke="#ff4757" stroke-width="2"/>
  <line x1="40" y1="60" x2="60" y2="60" stroke="#ff4757" stroke-width="2"/>
  <polygon points="50,50 52,58 48,58" fill="#ff4757"/>
  
  <!-- Map -->
  <rect x="130" y="140" width="40" height="30" rx="3" fill="#ffeaa7" opacity="0.9"/>
  <rect x="135" y="145" width="30" height="2" fill="#2c2c54" opacity="0.3"/>
  <rect x="135" y="150" width="25" height="2" fill="#2c2c54" opacity="0.3"/>
  <rect x="135" y="155" width="20" height="2" fill="#2c2c54" opacity="0.3"/>
  <circle cx="145" cy="160" r="2" fill="#ff4757"/>
  
  <!-- Backpack -->
  <rect x="150" y="80" width="25" height="35" rx="5" fill="#6bcf7f"/>
  <rect x="155" y="85" width="15" height="25" rx="3" fill="#5352ed" opacity="0.8"/>
  <rect x="150" y="75" width="25" height="8" rx="4" fill="#6bcf7f"/>
  
  <!-- Stars in sky -->
  <polygon points="30,30 32,35 38,35 33,39 35,45 30,41 25,45 27,39 22,35 28,35" fill="#ffd93d" opacity="0.6"/>
  <polygon points="170,35 172,40 178,40 173,44 175,50 170,46 165,50 167,44 162,40 168,40" fill="#ffd93d" opacity="0.6"/>
  
  <!-- Footprints trail -->
  <ellipse cx="90" cy="170" rx="3" ry="6" fill="#2c2c54" opacity="0.4"/>
  <ellipse cx="110" cy="175" rx="3" ry="6" fill="#2c2c54" opacity="0.4"/>
  <ellipse cx="130" cy="180" rx="3" ry="6" fill="#2c2c54" opacity="0.4"/>
  
  <!-- Sun -->
  <circle cx="170" cy="60" r="8" fill="#ffd93d" opacity="0.8"/>
  <line x1="170" y1="45" x2="170" y2="50" stroke="#ffd93d" stroke-width="2"/>
  <line x1="185" y1="60" x2="180" y2="60" stroke="#ffd93d" stroke-width="2"/>
  <line x1="179" y1="49" x2="176" y2="52" stroke="#ffd93d" stroke-width="2"/>
  <line x1="179" y1="71" x2="176" y2="68" stroke="#ffd93d" stroke-width="2"/>
</svg> 