<svg xmlns="http://www.w3.org/2000/svg" viewBox="0 0 200 200" fill="none">
  <defs>
    <linearGradient id="racingGrad" x1="0%" y1="0%" x2="100%" y2="100%">
      <stop offset="0%" style="stop-color:#ff4757"/>
      <stop offset="100%" style="stop-color:#ff9f43"/>
    </linearGradient>
  </defs>
  
  <!-- Background -->
  <rect width="200" height="200" fill="url(#racingGrad)" opacity="0.1"/>
  
  <!-- Car body -->
  <rect x="60" y="90" width="80" height="30" rx="15" fill="url(#racingGrad)"/>
  
  <!-- Car windows -->
  <rect x="70" y="95" width="60" height="10" rx="5" fill="white" opacity="0.9"/>
  
  <!-- Wheels -->
  <circle cx="80" cy="125" r="12" fill="#2c2c54"/>
  <circle cx="120" cy="125" r="12" fill="#2c2c54"/>
  <circle cx="80" cy="125" r="6" fill="#silver" opacity="0.8"/>
  <circle cx="120" cy="125" r="6" fill="#silver" opacity="0.8"/>
  
  <!-- Racing stripes -->
  <rect x="90" y="85" width="4" height="40" rx="2" fill="white" opacity="0.8"/>
  <rect x="106" y="85" width="4" height="40" rx="2" fill="white" opacity="0.8"/>
  
  <!-- Speed lines -->
  <rect x="20" y="95" width="25" height="3" rx="1" fill="url(#racingGrad)" opacity="0.6"/>
  <rect x="15" y="105" width="30" height="3" rx="1" fill="url(#racingGrad)" opacity="0.4"/>
  <rect x="25" y="115" width="20" height="3" rx="1" fill="url(#racingGrad)" opacity="0.8"/>
  
  <!-- Finish flag -->
  <rect x="150" y="50" width="30" height="20" rx="2" fill="white"/>
  <rect x="150" y="50" width="6" height="4" fill="#2c2c54"/>
  <rect x="162" y="50" width="6" height="4" fill="#2c2c54"/>
  <rect x="174" y="50" width="6" height="4" fill="#2c2c54"/>
  <rect x="156" y="54" width="6" height="4" fill="#2c2c54"/>
  <rect x="168" y="54" width="6" height="4" fill="#2c2c54"/>
  <rect x="150" y="58" width="6" height="4" fill="#2c2c54"/>
  <rect x="162" y="58" width="6" height="4" fill="#2c2c54"/>
  <rect x="174" y="58" width="6" height="4" fill="#2c2c54"/>
  <rect x="156" y="62" width="6" height="4" fill="#2c2c54"/>
  <rect x="168" y="62" width="6" height="4" fill="#2c2c54"/>
  <rect x="150" y="66" width="6" height="4" fill="#2c2c54"/>
  <rect x="162" y="66" width="6" height="4" fill="#2c2c54"/>
  <rect x="174" y="66" width="6" height="4" fill="#2c2c54"/>
  
  <!-- Flag pole -->
  <rect x="148" y="45" width="2" height="30" fill="#2c2c54"/>
  
  <!-- Exhaust smoke -->
  <circle cx="50" cy="100" r="3" fill="#gray" opacity="0.4"/>
  <circle cx="45" cy="95" r="2" fill="#gray" opacity="0.3"/>
  <circle cx="40" cy="105" r="2" fill="#gray" opacity="0.2"/>
</svg> 