<svg xmlns="http://www.w3.org/2000/svg" viewBox="0 0 400 300" fill="none">
  <defs>
    <linearGradient id="heroGrad1" x1="0%" y1="0%" x2="100%" y2="100%">
      <stop offset="0%" style="stop-color:#6366f1"/>
      <stop offset="100%" style="stop-color:#8b5cf6"/>
    </linearGradient>
    <linearGradient id="heroGrad2" x1="0%" y1="0%" x2="100%" y2="100%">
      <stop offset="0%" style="stop-color:#f59e0b"/>
      <stop offset="100%" style="stop-color:#ef4444"/>
    </linearGradient>
    <linearGradient id="heroGrad3" x1="0%" y1="0%" x2="100%" y2="100%">
      <stop offset="0%" style="stop-color:#10b981"/>
      <stop offset="100%" style="stop-color:#3b82f6"/>
    </linearGradient>
  </defs>
  
  <!-- Background elements -->
  <circle cx="350" cy="50" r="30" fill="url(#heroGrad1)" opacity="0.1"/>
  <circle cx="50" cy="250" r="40" fill="url(#heroGrad2)" opacity="0.1"/>
  <rect x="300" y="200" width="60" height="60" rx="15" fill="url(#heroGrad3)" opacity="0.1"/>
  
  <!-- Main gaming setup -->
  <!-- Monitor -->
  <rect x="120" y="80" width="160" height="100" rx="8" fill="#1f2937"/>
  <rect x="130" y="90" width="140" height="80" rx="4" fill="#111827"/>
  
  <!-- Screen content -->
  <rect x="135" y="95" width="130" height="70" rx="3" fill="url(#heroGrad1)" opacity="0.8"/>
  
  <!-- Game elements on screen -->
  <circle cx="170" cy="120" r="8" fill="#fbbf24"/>
  <rect x="190" y="115" width="12" height="12" rx="2" fill="#ef4444"/>
  <polygon points="215,125 225,115 235,125 225,135" fill="#10b981"/>
  <rect x="145" y="140" width="40" height="8" rx="4" fill="#3b82f6"/>
  <rect x="200" y="145" width="30" height="6" rx="3" fill="#8b5cf6"/>
  
  <!-- Sparkle effects on screen -->
  <circle cx="155" cy="105" r="2" fill="#fbbf24"/>
  <circle cx="245" cy="110" r="2" fill="#10b981"/>
  <circle cx="160" cy="155" r="2" fill="#ef4444"/>
  <circle cx="230" cy="150" r="2" fill="#3b82f6"/>
  
  <!-- Monitor stand -->
  <rect x="190" y="180" width="20" height="15" rx="2" fill="#374151"/>
  <rect x="160" y="195" width="80" height="8" rx="4" fill="#374151"/>
  
  <!-- Keyboard -->
  <rect x="140" y="210" width="120" height="40" rx="6" fill="#374151"/>
  <rect x="145" y="215" width="110" height="30" rx="3" fill="#4b5563"/>
  
  <!-- Keyboard keys -->
  <rect x="150" y="220" width="8" height="8" rx="1" fill="#6b7280"/>
  <rect x="162" y="220" width="8" height="8" rx="1" fill="#6b7280"/>
  <rect x="174" y="220" width="8" height="8" rx="1" fill="#6b7280"/>
  <rect x="186" y="220" width="8" height="8" rx="1" fill="#6b7280"/>
  <rect x="198" y="220" width="8" height="8" rx="1" fill="#6b7280"/>
  <rect x="210" y="220" width="8" height="8" rx="1" fill="#6b7280"/>
  <rect x="222" y="220" width="8" height="8" rx="1" fill="#6b7280"/>
  <rect x="234" y="220" width="8" height="8" rx="1" fill="#6b7280"/>
  
  <rect x="150" y="232" width="12" height="8" rx="1" fill="#6b7280"/>
  <rect x="166" y="232" width="8" height="8" rx="1" fill="#6b7280"/>
  <rect x="178" y="232" width="8" height="8" rx="1" fill="#6b7280"/>
  <rect x="190" y="232" width="8" height="8" rx="1" fill="#6b7280"/>
  <rect x="202" y="232" width="8" height="8" rx="1" fill="#6b7280"/>
  <rect x="214" y="232" width="8" height="8" rx="1" fill="#6b7280"/>
  <rect x="226" y="232" width="16" height="8" rx="1" fill="#6b7280"/>
  
  <!-- Mouse -->
  <ellipse cx="280" cy="230" rx="12" ry="18" fill="#374151"/>
  <ellipse cx="280" cy="230" rx="8" ry="14" fill="#4b5563"/>
  <rect x="278" y="225" width="4" height="8" rx="2" fill="#6b7280"/>
  
  <!-- Controller -->
  <rect x="60" y="160" width="60" height="30" rx="15" fill="url(#heroGrad2)"/>
  <circle cx="80" cy="170" r="6" fill="#1f2937"/>
  <circle cx="100" cy="180" r="6" fill="#1f2937"/>
  
  <!-- D-pad -->
  <rect x="72" y="168" width="4" height="12" rx="1" fill="#ffffff"/>
  <rect x="68" y="172" width="12" height="4" rx="1" fill="#ffffff"/>
  
  <!-- Buttons -->
  <circle cx="100" cy="170" r="3" fill="#ffffff"/>
  <circle cx="108" cy="175" r="3" fill="#ffffff"/>
  
  <!-- Mobile device -->
  <rect x="320" y="120" width="50" height="80" rx="12" fill="#1f2937"/>
  <rect x="325" y="130" width="40" height="60" rx="4" fill="#111827"/>
  
  <!-- Mobile game screen -->
  <rect x="327" y="132" width="36" height="56" rx="2" fill="url(#heroGrad3)" opacity="0.9"/>
  <circle cx="340" cy="150" r="4" fill="#fbbf24"/>
  <rect x="330" y="160" width="20" height="4" rx="2" fill="#ef4444"/>
  <circle cx="355" cy="170" r="3" fill="#10b981"/>
  
  <!-- Floating game elements -->
  <!-- Coins -->
  <circle cx="80" cy="80" r="8" fill="#fbbf24"/>
  <circle cx="78" cy="78" r="6" fill="#f59e0b"/>
  <rect x="76" y="76" width="4" height="4" fill="#fbbf24"/>
  
  <circle cx="320" cy="60" r="6" fill="#fbbf24"/>
  <circle cx="319" cy="59" r="4" fill="#f59e0b"/>
  
  <!-- Stars -->
  <polygon points="40,60 42,66 49,66 43,71 45,78 40,74 35,78 37,71 31,66 38,66" fill="#fbbf24"/>
  <polygon points="350,180 352,186 359,186 353,191 355,198 350,194 345,198 347,191 341,186 348,186" fill="#10b981"/>
  
  <!-- Power-ups -->
  <rect x="90" y="40" width="12" height="12" rx="2" fill="#ef4444"/>
  <rect x="92" y="42" width="8" height="8" rx="1" fill="#fbbf24"/>
  
  <polygon points="300,100 310,110 300,120 290,110" fill="#8b5cf6"/>
  <polygon points="295,105 305,105 300,115" fill="#a855f7"/>
  
  <!-- Hearts -->
  <path d="M 360 100 Q 355 95 350 100 Q 345 95 350 105 Q 355 110 360 105 Q 365 110 370 105 Q 375 95 370 100 Q 365 95 360 100 Z" fill="#ef4444"/>
  
  <!-- Lightning bolt -->
  <path d="M 50 120 L 45 135 L 50 140 L 40 160 L 50 145 L 45 140 L 55 125 Z" fill="#fbbf24"/>
  
  <!-- Magic wand -->
  <rect x="370" y="250" width="2" height="25" rx="1" fill="#8b5cf6" transform="rotate(45 371 262)"/>
  <polygon points="375,245 380,250 375,255 370,250" fill="#fbbf24" transform="rotate(45 375 250)"/>
  
  <!-- Connecting lines (data flow) -->
  <path d="M 100 200 Q 150 180 200 200" stroke="url(#heroGrad1)" stroke-width="2" fill="none" opacity="0.4"/>
  <path d="M 280 200 Q 320 180 340 200" stroke="url(#heroGrad2)" stroke-width="2" fill="none" opacity="0.4"/>
  
  <!-- Sparkles around the setup -->
  <circle cx="110" cy="70" r="2" fill="#fbbf24"/>
  <circle cx="290" cy="85" r="2" fill="#10b981"/>
  <circle cx="130" cy="260" r="2" fill="#ef4444"/>
  <circle cx="270" cy="270" r="2" fill="#8b5cf6"/>
  <circle cx="380" cy="220" r="2" fill="#3b82f6"/>
  
  <!-- Achievement badge -->
  <circle cx="30" cy="180" r="15" fill="url(#heroGrad3)"/>
  <polygon points="30,170 33,177 41,177 35,182 37,190 30,186 23,190 25,182 19,177 27,177" fill="#ffffff"/>
</svg> 